<svg width="18" height="18" viewBox="0 0 18 18" fill="none" xmlns="http://www.w3.org/2000/svg">
<path d="M6.45109 14.7689V14.8547M6.79865 14.7873C6.79865 14.9804 6.64202 15.1369 6.44896 15.1369C6.2559 15.1369 6.09949 14.9804 6.09949 14.7873C6.09949 14.5943 6.2559 14.4378 6.44896 14.4378C6.64202 14.4378 6.79865 14.5943 6.79865 14.7873Z" stroke="#070709" stroke-width="1.30668" stroke-linecap="round" stroke-linejoin="round"/>
<path d="M13.1376 14.7689V14.8547M13.4852 14.7873C13.4852 14.9804 13.3285 15.1369 13.1355 15.1369C12.9424 15.1369 12.786 14.9804 12.786 14.7873C12.786 14.5943 12.9424 14.4378 13.1355 14.4378C13.3285 14.4378 13.4852 14.5943 13.4852 14.7873Z" stroke="#070709" stroke-width="1.30668" stroke-linecap="round" stroke-linejoin="round"/>
<path d="M1.69202 2.08624H3.14138L5.06751 10.24C5.25398 11.0282 5.99208 11.5594 6.79869 11.4845" stroke="#070709" stroke-width="1.30668" stroke-linecap="round" stroke-linejoin="round"/>
<path d="M12.1434 4.60883L14.6932 4.58817C15.2378 4.58323 15.6305 5.10943 15.4709 5.62999L14.1409 9.9887C13.9275 10.6894 13.3116 11.1908 12.5827 11.2586L10.0647 11.4921" stroke="#070709" stroke-width="1.30668" stroke-linecap="round" stroke-linejoin="round"/>
<path d="M9.33105 4.5881L4.23145 4.62942" stroke="#070709" stroke-width="1.30668" stroke-linecap="round" stroke-linejoin="round"/>
</svg>
