<svg width="18" height="18" viewBox="0 0 18 18" fill="none" xmlns="http://www.w3.org/2000/svg">
<path fill-rule="evenodd" clip-rule="evenodd" d="M8.71126 2.72223C5.4034 2.72223 2.72232 5.40331 2.72232 8.71117C2.72232 12.0184 5.40344 14.7001 8.71126 14.7001C12.0191 14.7001 14.7002 12.0184 14.7002 8.71117C14.7002 5.40331 12.0191 2.72223 8.71126 2.72223ZM1.63342 8.71117C1.63342 4.80193 4.80202 1.63333 8.71126 1.63333C12.6205 1.63333 15.7891 4.80193 15.7891 8.71117C15.7891 12.6197 12.6206 15.789 8.71126 15.789C4.80198 15.789 1.63342 12.6197 1.63342 8.71117Z" fill="#070709"/>
<path fill-rule="evenodd" clip-rule="evenodd" d="M6.26939 12.8466C5.79593 13.2171 5.57109 13.6923 5.51419 14.134C5.47576 14.4322 5.20286 14.6429 4.90463 14.6044C4.6064 14.566 4.39579 14.2931 4.43421 13.9948C4.52563 13.2853 4.88702 12.5457 5.5984 11.989C6.3085 11.4335 7.32749 11.0902 8.68941 11.0902C10.0645 11.0902 11.0899 11.4348 11.802 11.9953C12.5159 12.5573 12.8725 13.3041 12.9592 14.0201C12.9954 14.3186 12.7827 14.59 12.4842 14.6261C12.1857 14.6623 11.9144 14.4496 11.8782 14.1511C11.8238 13.7017 11.6012 13.2231 11.1285 12.8509C10.6539 12.4774 9.88524 12.1791 8.68941 12.1791C7.50854 12.1791 6.74414 12.4752 6.26939 12.8466Z" fill="#070709"/>
<path fill-rule="evenodd" clip-rule="evenodd" d="M8.69072 5.64862C7.6697 5.64862 6.84219 6.47584 6.84219 7.49644C6.84219 8.51703 7.6697 9.34431 8.69072 9.34431C9.71153 9.34431 10.5386 8.51725 10.5386 7.49644C10.5386 6.47563 9.71153 5.64862 8.69072 5.64862ZM5.7533 7.49644C5.7533 5.87404 7.06874 4.55972 8.69072 4.55972C10.313 4.55972 11.6275 5.87425 11.6275 7.49644C11.6275 9.11869 10.313 10.4332 8.69072 10.4332C7.06874 10.4332 5.7533 9.11883 5.7533 7.49644Z" fill="#070709"/>
</svg>
